<?xml version="1.0" encoding="iso-8859-1"?>
<!-- Generator: Adobe Illustrator 19.0.0, SVG Export Plug-In . SVG Version: 6.00 Build 0)  -->
<svg version="1.1" id="Layer_1" xmlns="http://www.w3.org/2000/svg" xmlns:xlink="http://www.w3.org/1999/xlink" x="0px" y="0px"
	 viewBox="0 0 320 320" style="enable-background:new 0 0 320 320;" xml:space="preserve">
<g id="XMLID_934_">
	<g id="XMLID_935_">
		<path id="XMLID_936_" style="fill:#FFAD41;" d="M300,124.677v-20c0-54.872-44.482-99.355-99.355-99.355h-81.289
			C64.482,5.323,20,49.805,20,104.677v20H300z"/>
		<path id="XMLID_937_" style="fill:#FF9811;" d="M160,5.323h-40.645C64.482,5.323,20,49.805,20,104.677v20h140V5.323z"/>
		<circle id="XMLID_938_" style="fill:#804C09;" cx="70" cy="75.323" r="10"/>
		<circle id="XMLID_939_" style="fill:#804C09;" cx="120" cy="45.322" r="10"/>
		<circle id="XMLID_940_" style="fill:#BD720D;" cx="250" cy="75.323" r="10"/>
		<circle id="XMLID_941_" style="fill:#BD720D;" cx="200" cy="45.322" r="10"/>
		<circle id="XMLID_942_" style="fill:#BD720D;" cx="160" cy="75.323" r="10"/>
		<path id="XMLID_943_" style="fill:#804C09;" d="M160,65.323c-5.523,0-10,4.477-10,10c0,5.523,4.477,10,10,10"/>
	</g>
	<path id="XMLID_944_" style="fill:#BD720D;" d="M270,204.678H50c-16.568,0-30,13.432-30,30s13.432,30,30,30h220
		c16.568,0,30-13.432,30-30S286.568,204.678,270,204.678z"/>
	<path id="XMLID_945_" style="fill:#804C09;" d="M160,204.678H50c-16.568,0-30,13.432-30,30s13.432,30,30,30h110V204.678z"/>
	<path id="XMLID_946_" style="fill:#FFAD41;" d="M320,284.677c0,16.568-13.432,30-30,30H30c-16.568,0-30-13.432-30-30l0,0
		c0-16.568,13.432-30,30-30h260C306.568,254.678,320,268.109,320,284.677L320,284.677z"/>
	<path id="XMLID_947_" style="fill:#FF9811;" d="M160,254.678H30c-16.568,0-30,13.432-30,30s13.432,30,30,30h130V254.678z"/>
	<g id="XMLID_948_">
		<polygon id="XMLID_949_" style="fill:#FFE98F;" points="60,214.678 160,204.678 260,214.678 160,264.677 		"/>
		<polygon id="XMLID_950_" style="fill:#FFDA44;" points="60,214.678 160,204.678 160,264.677 		"/>
	</g>
	<path id="XMLID_951_" style="fill:#BD720D;" d="M270,134.678H50c-16.568,0-30,13.432-30,30s13.432,30,30,30h220
		c16.568,0,30-13.432,30-30S286.568,134.678,270,134.678z"/>
	<path id="XMLID_952_" style="fill:#804C09;" d="M160,134.678H50c-16.568,0-30,13.432-30,30s13.432,30,30,30h110V134.678z"/>
	<path id="XMLID_953_" style="fill:#FF5023;" d="M320,199.678c0,8.284-6.715,15-15,15H15c-8.283,0-15-6.716-15-15l0,0
		c0-8.284,6.717-15,15-15h290C313.285,184.678,320,191.393,320,199.678L320,199.678z"/>
	<path id="XMLID_954_" style="fill:#BD3C1A;" d="M160,184.678H15c-8.283,0-15,6.716-15,15s6.717,15,15,15h145V184.678z"/>
	<g id="XMLID_955_">
		<polygon id="XMLID_956_" style="fill:#FFE98F;" points="60,144.678 160,134.678 260,144.678 160,194.678 		"/>
		<polygon id="XMLID_957_" style="fill:#FFDA44;" points="60,144.678 160,134.678 160,194.678 		"/>
	</g>
	<path id="XMLID_958_" style="fill:#91DC5A;" d="M320,129.678c0,8.284-6.715,15-15,15H15c-8.283,0-15-6.716-15-15l0,0
		c0-8.284,6.717-15,15-15h290C313.285,114.677,320,121.393,320,129.678L320,129.678z"/>
	<path id="XMLID_959_" style="fill:#64C37D;" d="M160,114.677H15c-8.283,0-15,6.716-15,15s6.717,15,15,15h145V114.677z"/>
</g>
<g>
</g>
<g>
</g>
<g>
</g>
<g>
</g>
<g>
</g>
<g>
</g>
<g>
</g>
<g>
</g>
<g>
</g>
<g>
</g>
<g>
</g>
<g>
</g>
<g>
</g>
<g>
</g>
<g>
</g>
</svg>
