<?xml version="1.0" encoding="iso-8859-1"?>
<!-- Generator: Adobe Illustrator 16.0.0, SVG Export Plug-In . SVG Version: 6.00 Build 0)  -->
<!DOCTYPE svg PUBLIC "-//W3C//DTD SVG 1.1//EN" "http://www.w3.org/Graphics/SVG/1.1/DTD/svg11.dtd">
<svg version="1.1" id="Capa_1" xmlns="http://www.w3.org/2000/svg" xmlns:xlink="http://www.w3.org/1999/xlink" x="0px" y="0px"
	 width="458.659px" height="458.659px" viewBox="0 0 458.659 458.659" style="enable-background:new 0 0 458.659 458.659;"
	 xml:space="preserve">
<g>
	<g>
		<path d="M228.723,422.516l3.261,0.096C435.234,340.565,511.027,148.98,421.521,66.935
			c-89.505-82.046-192.053,25.369-192.053,25.369h-0.746c0,0-102.558-107.425-192.062-25.379
			C-52.845,148.971,25.472,340.47,228.723,422.516z M187.824,288.947c36.806-5.317,29.118-33.105,29.118-33.105
			c-2.955-2.955-26.909-10.069-27.502-65.054c0-69.175,44.916-69.797,44.916-69.797h0.545c0,0,44.857,1.339,44.857,70.514
			c-0.593,54.984-24.575,63.477-27.53,66.431c0,0-7.708,26.02,29.099,31.346c36.806,5.317,46.98,42.085,46.98,42.085H238.61h-7.832
			h-89.964C140.824,331.366,151.018,294.264,187.824,288.947z"/>
	</g>
</g>
<g>
</g>
<g>
</g>
<g>
</g>
<g>
</g>
<g>
</g>
<g>
</g>
<g>
</g>
<g>
</g>
<g>
</g>
<g>
</g>
<g>
</g>
<g>
</g>
<g>
</g>
<g>
</g>
<g>
</g>
</svg>
