<?xml version="1.0" encoding="utf-8"?>
<!-- Generator: Adobe Illustrator 14.0.0, SVG Export Plug-In . SVG Version: 6.00 Build 43363)  -->
<!DOCTYPE svg PUBLIC "-//W3C//DTD SVG 1.1//EN" "http://www.w3.org/Graphics/SVG/1.1/DTD/svg11.dtd">
<svg version="1.1" id="Layer_1" xmlns="http://www.w3.org/2000/svg" xmlns:xlink="http://www.w3.org/1999/xlink" x="0px" y="0px"
	 width="250px" height="300px" viewBox="0 0 440 330" enable-background="new 0 0 440 330" xml:space="preserve">
<g>
	<g>
		<g>
			<g>
				<g>
					<path fill="#231F20" d="M109.958,235.12h7.165v5.749h-7.165V235.12z M109.958,244.012h7.165v25.237h-7.165V244.012z"/>
					<path fill="#231F20" d="M127.69,242.419v-7.26h-7.506v7.26h3.143c0,2.604-1.398,4.724-3.148,4.724l0.006,3.445
						C124.345,250.588,127.69,246.94,127.69,242.419z"/>
					<path fill="#231F20" d="M137.921,246.719c0.86-1.044,2.752-3.282,7.001-3.282c4.047,0,5.508,1.519,6.83,2.935
						c1.417-1.22,3.395-2.935,7.323-2.935c4.047,0,6.127,2.048,6.88,3.623c0.619,1.322,0.658,3.085,0.658,5.774v16.415h-7.178
						v-13.229c0-1.455,0-3.339-0.265-4.308c-0.672-2.11-2.606-2.263-3.163-2.263c-0.714,0-1.657,0.209-2.372,0.783
						c-1.366,1.09-1.366,2.55-1.366,5.288v13.728h-7.164v-14.923c0-1.096-0.05-2.613-0.702-3.566
						c-0.576-0.758-1.657-1.31-2.833-1.31c-0.577,0-1.33,0.152-1.994,0.603c-1.598,1.086-1.657,3.127-1.657,4.848v14.349h-7.157
						v-25.237h7.157V246.719z"/>
					<path fill="#231F20" d="M184.109,235.159v34.09h-7.266v-34.09H184.109z"/>
					<path fill="#231F20" d="M213.641,256.608c0,6.367-3.58,13.349-13.197,13.349c-6.943,0-13.267-4.027-13.267-13.349
						c0-7.74,4.767-13.88,14.195-13.323C211.414,243.872,213.641,251.999,213.641,256.608z M195.712,251.612
						c-0.896,1.476-1.22,3.187-1.22,4.938c0,3.996,1.898,7.52,5.952,7.52c3.912,0,5.85-3.231,5.85-7.177
						c0-2.815-0.658-4.989-2.038-6.324c-1.491-1.466-3.205-1.523-4.243-1.416C197.945,249.299,196.712,250.053,195.712,251.612z"/>
					<path fill="#231F20" d="M225.611,262.389l4.117-18.377h7.449l-7.967,25.237h-7.588l-7.982-25.237h7.646L225.611,262.389z"/>
					<path fill="#231F20" d="M257.793,246.32c0.732-0.791,1.208-1.365,2.473-1.974c1.119-0.475,2.705-0.91,4.482-0.91
						c1.467,0,3.094,0.299,4.358,1.007c2.623,1.378,3.295,3.647,3.295,7.556v17.25h-7.211v-14.21c0-2.256-0.051-3.091-0.334-3.755
						c-0.589-1.333-1.886-1.935-3.288-1.935c-3.814,0-3.814,3.137-3.814,6.273v13.626h-7.284v-25.237h7.323V246.32z"/>
					<path fill="#231F20" d="M240.264,235.12h7.171v5.749h-7.171V235.12z M240.264,244.012h7.171v25.237h-7.171V244.012z"/>
					<path fill="#231F20" d="M293.18,235.12h7.151v5.749h-7.151V235.12z M293.18,244.012h7.151v25.237h-7.151V244.012z"/>
					<path fill="#231F20" d="M306.984,238.257h7.208v5.8h4.787v5.755h-4.832v10.686c-0.036,1.537-0.036,2.858,1.922,2.858
						l2.58-0.095v5.806c-1.535,0.233-2.484,0.372-3.818,0.372c-2.498,0-5.211-0.139-6.805-2.473
						c-0.992-1.484-1.042-3.275-1.042-5.704v-11.508h-3.547v-5.742h3.547V238.257z"/>
					<path fill="#231F20" d="M282.929,242.419v-7.26h-7.505v7.26h3.166c0,2.604-1.416,4.724-3.166,4.724v3.445
						C279.59,250.588,282.929,246.94,282.929,242.419z"/>
				</g>
			</g>
		</g>
	</g>
	<g>
		<path fill="#231F20" d="M327.011,235.12c2.845,0,5.228,2.256,5.228,5.222c0,3.008-2.383,5.267-5.228,5.267
			c-2.859,0-5.262-2.259-5.262-5.267C321.749,237.376,324.151,235.12,327.011,235.12z M327.011,244.84
			c2.407,0,4.278-1.935,4.278-4.498c0-2.516-1.871-4.45-4.278-4.45c-2.443,0-4.307,1.935-4.307,4.45
			C322.704,242.905,324.567,244.84,327.011,244.84z M324.973,237.296h2.359c1.45,0,2.132,0.574,2.132,1.751
			c0,1.109-0.697,1.571-1.601,1.668l1.739,2.708h-1.018l-1.657-2.635h-1.007v2.635h-0.948V237.296z M325.921,240.018h0.994
			c0.835,0,1.6-0.04,1.6-1.012c0-0.815-0.695-0.939-1.341-0.939h-1.253V240.018z"/>
	</g>
</g>
<g>
	<g>
		<path fill="#FFC425" d="M248.776,69.792c14.479,0,26.222,61.047,26.222,136.353h20.977c0-81.099-21.133-146.84-47.198-146.84
			c-14.83,0-28.059,19.757-36.71,50.655c-8.65-30.898-21.885-50.655-36.713-50.655c-26.064,0-47.202,65.741-47.202,146.84h20.981
			c0-75.306,11.742-136.353,26.221-136.353c14.482,0,26.225,56.354,26.225,125.863h20.974
			C222.552,126.146,234.294,69.792,248.776,69.792z"/>
	</g>
	<g>
		<path fill="#FFC425" d="M306.479,195.655c2.845,0,5.229,2.257,5.229,5.222c0,3.009-2.385,5.268-5.229,5.268
			c-2.859,0-5.261-2.259-5.261-5.268C301.218,197.912,303.619,195.655,306.479,195.655z M306.479,205.375
			c2.407,0,4.28-1.935,4.28-4.498c0-2.516-1.873-4.45-4.28-4.45c-2.441,0-4.307,1.935-4.307,4.45
			C302.172,203.44,304.037,205.375,306.479,205.375z M304.441,197.831h2.358c1.448,0,2.131,0.575,2.131,1.751
			c0,1.111-0.695,1.572-1.598,1.669l1.737,2.707h-1.018l-1.657-2.634h-1.005v2.634h-0.949V197.831z M305.391,200.553h0.993
			c0.832,0,1.598-0.04,1.598-1.011c0-0.816-0.694-0.939-1.339-0.939h-1.252V200.553z"/>
	</g>
</g>
</svg>
