<?xml version="1.0" encoding="iso-8859-1"?>
<!-- Generator: Adobe Illustrator 16.0.0, SVG Export Plug-In . SVG Version: 6.00 Build 0)  -->
<!DOCTYPE svg PUBLIC "-//W3C//DTD SVG 1.1//EN" "http://www.w3.org/Graphics/SVG/1.1/DTD/svg11.dtd">
<svg version="1.1" id="Capa_1" xmlns="http://www.w3.org/2000/svg" xmlns:xlink="http://www.w3.org/1999/xlink" x="0px" y="0px"
	 width="98.174px" height="98.174px" viewBox="0 0 98.174 98.174" style="enable-background:new 0 0 98.174 98.174;"
	 xml:space="preserve">
<g>
	<g>
		<path d="M83.791,83.721c-1.149-22.32-9.577-33.396-17.646-38.184c-4.423,5.775-10.496,9.141-17.056,9.141
			c-6.688,0-12.812-3.334-17.202-9.071c-0.005,0.004-0.011,0.008-0.019,0.012c-8.016,4.843-16.338,15.933-17.485,38.106
			c-0.2,3.94,2.447,7.324,5.923,7.554c0.122,0.01,6.795,0.348,6.795,0.348c3.953,4.351,11.814,6.548,21.839,6.548
			c9.443,0,17.984-1.838,22.131-6.548c0,0,6.675-0.338,6.801-0.348C81.345,91.049,83.996,87.666,83.791,83.721z M77.282,85.057
			c-0.898,0.047-4.679,0.238-6.035,0.308v-6.288c0-0.863-0.699-1.562-1.562-1.562s-1.562,0.699-1.562,1.562v6.45l-1.738,1.973
			c-2.442,2.774-8.965,4.431-17.444,4.431c-8.219,0-14.654-1.684-17.219-4.504l-1.67-1.834v-6.517c0-0.862-0.699-1.562-1.561-1.562
			c-0.863,0-1.562,0.697-1.562,1.562v6.288c-1.343-0.068-5.067-0.256-6.036-0.309c-0.11-0.133-0.299-0.472-0.271-1.013
			c0.866-16.769,6.029-25.526,10.606-30.041c3.856,3.37,8.384,5.597,13.177,6.483v10.363h9.366V60.488
			c4.769-0.878,9.323-3.083,13.176-6.487c4.621,4.491,9.739,13.168,10.606,30.041C77.583,84.584,77.392,84.924,77.282,85.057z"/>
		<path d="M30.638,36.33c3.439,9.224,10.407,14.916,18.449,14.916c8.419,0,14.966-5.915,18.443-14.916
			c3.544-0.309,5.503-3.773,6.215-7.934c0.841-4.914-0.925-7.311-4.031-7.848C68.657,9.009,65.43,0,49.087,0
			C32.838,0,29.521,9.008,28.462,20.549c-3.107,0.537-4.871,2.934-4.033,7.848C25.134,32.509,27.026,35.995,30.638,36.33z
			 M45.279,17.332c1.074,1.42,8.008,9.99,18.83,10.734c-1.564,10.043-7.106,17.333-15.021,17.333c-8.405,0-14.644-8.373-15.36-20.22
			C41.336,23.381,44.257,19.38,45.279,17.332z"/>
	</g>
</g>
<g>
</g>
<g>
</g>
<g>
</g>
<g>
</g>
<g>
</g>
<g>
</g>
<g>
</g>
<g>
</g>
<g>
</g>
<g>
</g>
<g>
</g>
<g>
</g>
<g>
</g>
<g>
</g>
<g>
</g>
</svg>
